<svg version="1.0" xmlns="http://www.w3.org/2000/svg" width="533.333" height="533.333" viewBox="0 0 400 400"><path d="M228.4 6.1c-1.2.4-3.4.9-5 1.1-1.6.1-3.5.9-4.3 1.7-.9.8-2.7 1.1-4.8.8-1.8-.3-3.3-.2-3.3.4 0 .5-.9.9-2.1.9-1.1 0-1.7-.5-1.4-1 1.2-1.9-.4-1-3.5 2-1.6 1.6-3 3.6-3 4.4 0 .9-.6 1.3-1.3 1-1-.3-1.4.5-1.5 2.7 0 1.8-.6 3.5-1.2 3.9-.8.5-.7 1.2.5 2.4 1.5 1.5 1.5 1.6-.3 1.6-1 0-3 1-4.4 2.2-1.4 1.3-3.8 3.3-5.5 4.5-1.6 1.2-5.7 4.6-8.9 7.7-3.2 3-8.6 6.9-11.9 8.6-3.3 1.8-7.4 4.7-9.1 6.6-3.2 3.6-5.2 4.1-8.6 2.3-1.9-1-2-.9-1.6 1.5.3 1.4.4 2.6.2 2.6s-1.9-1.6-3.9-3.5c-2.8-2.8-4.2-3.5-6.8-3.3-2.1.1-4.5-.6-6.4-2-3.3-2.3-9.6-2.9-12.3-1.2-.9.6-1.4 2.1-1.2 3.9.2 1.6-.1 4.6-.7 6.8-.7 2.4-.7 5.7-.1 9.3.5 3 1.4 8.3 2 11.8.5 3.5 1.4 7.1 2 8.1.8 1.6 0 2.5-4.9 6-3.3 2.2-6.2 4.1-6.5 4.1-.3 0-6.4 5.7-13.4 12.7-12.7 12.7-21.3 22.7-26.6 31.2-3.2 5-10.1 22.8-11.6 29.9-.6 2.6-2.1 6.9-3.5 9.7-4.9 10-8 29.3-7.3 45.4.2 4.4 0 7.7-.4 7.5-.4-.3-2-2.5-3.4-5-3.9-6.7-4.9-5.3-4.7 6.2.2 17 5.2 36.8 11.9 47.7l3.6 5.8-.3 16.1-.4 16 3 2.6c1.7 1.5 4.5 3.9 6.4 5.5l3.3 2.7-2.8 3.6c-5.3 6.6-5.2 6.2-.9 10 7.2 6.2 20.9 15.2 29 19 18.9 8.8 45.3 17.3 65 20.9 28.6 5.1 66.9 4.7 95.1-1.1 26.3-5.4 57.9-17.3 73.9-27.7 8.4-5.6 18.5-13.7 18.5-14.9 0-.5-1.6-2.8-3.5-5.1-1.9-2.2-3.5-4.6-3.5-5.2 0-.7 1.8-2.5 4.1-4 6-4.2 6.5-5.9 5.7-17.2-1-13.8-.2-19.8 3.6-25.8 5.9-9.3 9.4-20.2 12.2-38 3.1-19.7 1.1-28.8-4.1-18.5-1.3 2.7-2.8 5.1-3.2 5.3-.5.3-.8-6.3-.9-14.7-.1-20.5-3.3-36.2-8.4-40.6-1.1-1-2-2.6-2-3.7 0-7.3-12.1-29.1-26.2-47.1-3-3.8-4.7-7-4.4-7.8 1.1-2.9-1.2-5.4-5-5.4-4.6 0-5.2-2-2-6.7 1.4-2.1 2.6-4.5 2.6-5.4 0-1 1.2-4 2.6-6.8 1.7-3.2 3-7.8 3.5-12.3.4-4 .9-8.2 1.1-9.3.2-1.5-.7-2.5-3.6-3.9-3.6-1.8-4.2-1.8-8-.4-2.7 1-6 1.4-9.4 1-3.9-.3-5.2-.1-5.2.9s-.3 1-1.2.1c-.7-.7-2-1.2-3-1.2s-3.3-1.5-5-3.4c-3.5-3.8-11.8-19.1-11.8-21.8 0-.9-2.4-5.6-5.3-10.5-2.9-4.8-5.9-10.1-6.7-11.6-.8-1.6-2.7-3.9-4.2-5.2-2.9-2.5-3.6-4.5-1.6-4.5.6 0 0-.9-1.3-2.1-1.3-1.1-2.3-2.8-2.1-3.6.2-.8-.1-1.3-.6-.9-.5.3-2.5-.8-4.4-2.4-3.9-3.2-10.3-5.1-13.4-3.9zm25 22.6 1.7 3.8-2.8-3.2c-1.5-1.7-3.7-3.4-4.8-3.6-1.3-.3-.9-.5 1.1-.6 2.6-.1 3.3.5 4.8 3.6zm-15 3.4c7.8 6.5 8.6 8.4 1.3 3-3.1-2.2-6.1-4.1-6.7-4.1-.5 0-1-.5-1-1.1 0-.8-2.6-1-7.9-.8-6.7.4-7.6.2-5.8-.8 1.2-.7 4.8-1.2 8.1-1.3 5.5 0 6.1.2 12 5.1zm-22.7-.7c.1 0-1.8.1-4.2.1-3.6 0-5 .6-7.9 3.4-2 1.9-3.6 3.1-3.6 2.5.1-1.4 2.6-4.4 3.7-4.4.6 0 1.6-.6 2.3-1.4 1.9-2.4 6.4-2.5 9.7-.2zm37.7 3.8c.9 2.3 1.4 4.3 1.2 4.5-.2.2-.9-1.1-1.6-2.9-.7-1.8-2-4.1-2.9-5.1-1.3-1.6-1.3-1.7.1-1.2.8.3 2.3 2.5 3.2 4.7zm-60.8 5.3c-5.1 5.2-9.6 9.5-10.1 9.5-.4 0 0-.9 1-2 1.5-1.7 1.2-1.6-2.6.5-2.4 1.4-5.3 2.9-6.4 3.4-2.4 1.1-7 5.9-6.3 6.6.2.3 2.3-1.1 4.5-3 5-4.3 6.7-4.6 2.8-.5-1.6 1.6-2.6 3-2.2 3 .4 0 0 1.1-.9 2.5s-2.1 2.5-2.7 2.5c-.6 0 0-1.2 1.4-2.7 2.1-2.3 2.2-2.5.4-1.9-1.1.4-2.4.8-3 .9-.5.1-1.8 1.5-2.7 3.2-2.1 3.7-2.4 2.5-.3-1.5.9-1.7 1.4-3 1.1-3-.2 0-2.7 1.6-5.6 3.5-5.3 3.5-8.4 4.3-9.5 2.5-.4-.7.2-.9 1.7-.5 1.9.5 3-.3 6-3.9 2.3-2.7 4.9-4.7 6.7-5.1 1.7-.4 6.9-4.1 12-8.5 9-8 19.2-14.9 22.2-15 1 0-2.1 3.9-7.5 9.5zm68.9 3.5c.7.8 2.3 3.7 3.5 6.5 1.2 2.7 3 6.6 3.9 8.5 1 1.9 2.4 5.5 3.1 8 .8 2.5 1.8 5.1 2.3 5.8.7.8.7 1.6 0 2.3-.7.7-1.4 0-2.2-2.2-.6-1.7-1.1-3.8-1.1-4.5 0-.8-1.9-4.4-4.2-8.1-2.3-3.8-4.1-7.8-4-8.9.1-1.2-.5-2.7-1.3-3.4-.8-.7-1.5-1.8-1.5-2.4 0-.6-.8-2.7-1.9-4.6-1-1.9-2.1-4.6-2.5-6-.4-1.4.5-.3 1.9 2.5 1.5 2.7 3.3 5.7 4 6.5zm-66.2 3.5c-.3.9-.8 1.4-1 1.1-.3-.3-.2-.9.2-1.5.9-1.6 1.5-1.3.8.4zm51.6 13.9c.1 5.5-.1 9.7-.3 9.5-.3-.2-.6-5.5-.8-11.7-.2-6.3-.1-10.6.3-9.5.4 1 .8 6.3.8 11.7zm-56.4 2.1c-3.1 7.5-3.2 6.4-.2-2.7 1.2-3.8 2.3-6.2 2.5-5.1.1 1-.9 4.5-2.3 7.8zm-62.6-7.1c.9.8 3.8 2.6 6.4 4 4.8 2.5 4.8 2.5 4.1.3l-.7-2.2 2.3 2c3.7 3.3 8.3 9.5 7.6 10.3-.4.3-1.9-.8-3.3-2.7-1.9-2.4-2.8-2.9-3.4-2-.4.7-.4 2 .1 2.9 1 1.9.2 6.2-1.1 5.4-.5-.2-.6-1.7-.3-3.2.4-2.1-.1-3.3-2.2-5.2l-2.7-2.5 1.9 3c1.2 1.8 1.9 4.7 1.9 7.7 0 5.3-.4 5.8-2.3 2.8-1-1.7-1-2.3.3-3.6.8-.9 1.5-1.8 1.5-2 0-.7-2.1-3.1-7.3-8.5-3.8-3.9-5.4-4.9-8.1-4.9-2.1 0-3.6-.6-4-1.5-.4-1.2.3-1.5 3.6-1.5 2.3 0 4.9.6 5.7 1.4zM155 72.3c0 1.6-.5 3.7-1 4.8-1.2 2.1-4.5 2.6-5.6.7-.5-.7-.2-.9.8-.6 2.6 1.1 4.1-.9 4.2-5.5.1-4.8 1.6-4.2 1.6.6zM261.4 78c.7.8 1.6 3.3 2 5.5.3 2.2.9 5.1 1.2 6.5.4 1.4.4 2.2 0 1.8-.4-.3-1.3-3-2.1-6-.7-2.9-2-7.1-2.9-9.3-.8-2.2-1.5-5.4-1.4-7 0-2.1.3-1.5 1 2 .5 2.7 1.5 5.7 2.2 6.5zm-88.1-6.5c-.3.9-.8 1.4-1 1.1-.3-.3-.2-.9.2-1.5.9-1.6 1.5-1.3.8.4zm13.7 2.2c-1.1 1.7-1.1 1.7-.6 0 .3-1 .6-2.4.7-3 0-.9.2-.9.5 0 .3.7 0 2-.6 3zm-27.5 2.8c-3.2 9.3-8.4 18.9-8.5 15.8 0-.6.4-1.4.9-1.7.5-.4 2.6-4.7 4.7-9.6 3.8-9.2 5.4-11.7 2.9-4.5zm11.4 2.4c-1.6 5.4-2.4 4.6-.9-.9.6-2.3 1.4-4 1.6-3.7.3.3 0 2.4-.7 4.6zm107.9 2c-1.2 1.1-2.5 3.6-2.9 6.2l-.8 4.4.3-4.9c.2-2.7 1-5.2 1.7-5.7.9-.5 1-.9.3-.9s-1.4-.6-1.7-1.4c-.5-1.2-.1-1.3 2.4-.4l2.9 1-2.2 1.7zm34.1-3c1 .6 1.1 1.3.2 2.9-.6 1.1-1.1 4.5-1.2 7.4-.1 4.1-.3 4.8-.9 2.8-.8-2.5-.8-2.5-1 .5-.5 6.2-.9 8.8-1.8 9.7-1.4 1.4.4-9.8 2.7-17.1 1.2-4 1.3-3.8-1.9-4.5-1.9-.5-4.2.5-9.7 4.1-3.9 2.6-6.9 5.2-6.6 5.7.3.6 0 .5-.7-.1-1.1-1-1-1.7.5-3.5l1.9-2.3-2.2 2.1c-2 1.8-2.2 2.4-1.1 4.7.7 1.5 1.6 2.4 2 2.1 1.7-1 .8 1.2-1.7 4-2.9 3.3-4.4 2.8-2-.8 2-3.1 2.2-5.9.2-3.4-1.8 2.4-2.5 2.3-1.9-.2.3-1.1 1-2 1.5-2s.7-.4.3-.9c-.7-1.3 2.6-7.9 4.5-8.7.8-.3 3-.8 4.9-.9 1.8-.2 3.8-.8 4.4-1.4 1.3-1.3 7.6-1.4 9.6-.2zm-65.2 3.8c-.3 1-.5.4-.5-1.2 0-1.7.2-2.4.5-1.8.2.7.2 2.1 0 3zm45-2.4c-1 .7-3.4 2.7-5.4 4.4-1.9 1.8-4 3.3-4.6 3.3-1.3 0-.9-.4 5.1-5.4 2.4-2 4.9-3.6 5.5-3.5.7 0 .4.6-.6 1.2zm-146.3 7.6c-1.6 1.6-3.1 2.7-3.4 2.4-.5-.4 4.9-5.3 5.9-5.3.2 0-.9 1.3-2.5 2.9zm21.7-.2c-1.2 2-1.4 1.4-.5-1.2.4-.9.9-1.4 1.1-1.1.3.2 0 1.3-.6 2.3zm99.3 11.8c.4 1.9.3 2.5-.3 1.5-.4-.8-1.1-2.9-1.5-4.5-.4-1.9-.3-2.5.3-1.5.4.8 1.1 2.8 1.5 4.5zM150 96c-.6 1.1-1.3 2-1.6 2-.2 0 0-.9.6-2s1.3-2 1.6-2c.2 0 0 .9-.6 2zm132.2 7.4c1.7 1.2 1.9 1.6.6 1.6-1.9 0-4.8-3.7-4.7-6 0-.9.3-.7.9.6.5 1.2 1.9 2.9 3.2 3.8zm-143.8-1.9c-.9 1.4-2.8 2.8-4.3 3.1-1.4.4-3.2 1.3-3.8 2.2-.7.9-1.3 1.1-1.3.4 0-1.4 4-4.2 6-4.2.8 0 2.1-.9 2.8-2 .7-1.1 1.4-2 1.7-2 .3 0-.2 1.1-1.1 2.5zm62.6 2.4c6.1.5 2.6.7-12.8.7-11.7-.1-20.3-.4-19-.8 3.1-.8 21.2-.8 31.8.1zm-76.4 6c-.8 2.1-1.3 4.1-1 4.4.2.2-.7 1.2-2.1 2.1-1.4.9-2.5 2.3-2.5 3.2 0 .8-2 3.6-4.4 6.2-4.2 4.5-4.3 4.9-3 7.2 1 1.9 1.3 2.1 1.4.7 0-2.4 3-2.2 3 .3 0 1.1-.6 2-1.3 2-.9 0-1.2 1.1-.9 3.5.4 3.7-2.1 12.9-4.1 15-.9.9-1.2-1-1.1-8.4.1-8.2 0-8.5-.3-1.9-.4 7.3-1.2 9.3-2.9 6.7-.4-.8-.9-.7-1.5.2-.6 1-1 .9-1.5-.6-.5-1.1-.3-2 .4-2.3.6-.2.9-.9.6-1.6-.3-.7-.1-3.1.5-5.4.5-2.3.8-4.2.6-4.2-.3 0-7.5 10.9-7.5 11.4 0 .3 1.7 1.4 3.8 2.6 4.9 2.8 7.3 6.2 7.5 10.8.2 3.6.1 3.8-2.8 3.7-3.7-.2-7.4-2.5-10-6.5-1.1-1.6-2.3-3-2.6-3-1 0-7.4 15.8-9.9 24.2-1.2 3.9-2.1 9-2.1 11.2.1 2.3.2 5 .2 6.1.1 4.3-.5 6.3-1.9 5.8-1.1-.5-1.1-.7 0-1.5.9-.7.8-.8-.5-.4-1 .3-2.8.1-4-.6-2-1-2.1-1-.8.6.8.9 2.9 2.3 4.8 3.1 3.6 1.5 5.7 5.2 4.1 7.2-2.4 3-12.4.6-16.4-3.9-1.7-1.8-1.7-2-.2-2.9 1.7-1 3.2-8.5 2.9-15.3 0-2.2.5-4.7 1.3-5.5.7-.9 1.8-3.7 2.4-6.2 1.9-7.8 8.7-23.5 13.8-32 5.8-9.6 18.1-24.7 25-30.6 14.1-12 16-12.8 13-5.4zm-7.6-4.5c0 .2-.8 1-1.7 1.7-1.6 1.3-1.7 1.2-.4-.4 1.3-1.6 2.1-2.1 2.1-1.3zm115 2.5c11.2 2 19.4 4 18.8 4.6-.2.2-3-.2-6.3-1-3.3-.7-10.4-2-15.7-3-5.4-1-9.8-1.9-9.8-2.1 0-.7 2.3-.4 13 1.5zm50.7 3.8c-.3 1-.5.2-.5-1.7s.2-2.7.5-1.8c.2 1 .2 2.6 0 3.5zm-130.4-1c-.7.2-1.4 1.4-1.4 2.6-.1 1.8-.2 1.9-.6.4-.3-1.1-1.1-1.6-1.9-1.3-.8.3-1.4.3-1.4 0 0-.6 4.1-2.3 5.5-2.3.6.1.4.3-.2.6zm24.2 6.5c-.5 3.5-1 5.7-1.3 5-.5-1.7.8-12.5 1.5-11.8.3.2.2 3.3-.2 6.8zm-66.5-5.8c0 .2-.8 1-1.7 1.7-1.6 1.3-1.7 1.2-.4-.4 1.3-1.6 2.1-2.1 2.1-1.3zm31.8 3.3c-3.7 1.5-3.8 1.7-3.9 6.7 0 2.8-.7 6.7-1.5 8.6l-1.4 3.5.6-3.5c1.1-6.6 1.6-14 1-14-.4 0-1.8.7-3.1 1.6-1.4.9-4 1.6-6 1.6-3.9 0-6.5 2.6-6.5 6.5 0 3.2-4 20.6-4.6 20-.2-.2.8-6.3 2.2-13.5 3-14.7 2.2-13.8 13.9-16.2 3.3-.7 6.9-1.6 8-2 1.1-.5 2.7-.9 3.5-.8.8 0-.2.7-2.2 1.5zm-35.8.7c0 .2-.8 1-1.7 1.7-1.6 1.3-1.7 1.2-.4-.4 1.3-1.6 2.1-2.1 2.1-1.3zm58.7 6.3c-.3 1-.5.2-.5-1.7s.2-2.7.5-1.8c.2 1 .2 2.6 0 3.5zM288 121c1.6 1.6 3 3.4 3 3.9 0 .6-1.6-.5-3.5-2.5-1.9-1.9-3.5-3.7-3.5-3.9 0-1 1.1-.4 4 2.5zm-138.9 1.6c-.5 1.6-1 2.1-1 1.2-.1-1.8 1-5.1 1.5-4.5.2.1-.1 1.6-.5 3.3zm-22.4 3.1c-.3 1-.5.4-.5-1.2 0-1.7.2-2.4.5-1.8.2.7.2 2.1 0 3zm139 1c-.3 1-.5.4-.5-1.2 0-1.7.2-2.4.5-1.8.2.7.2 2.1 0 3zm39.8 7.9c3 4 7.9 11.8 10.9 17.5 5.1 9.3 5.5 10.5 4.6 13.4-1.2 3.5-8.8 11.7-10.1 10.9-.5-.3-.9 0-.9.5 0 .6-.9 1.1-1.9 1.1-3.8 0-5.1-1.1-5.1-4.6 0-2.6.9-4.3 3.8-7.2 3.5-3.5 3.7-4.1 3.9-10.2l.2-6.5-.9 5.5c-.6 4.1-1.5 6-3.4 7.5-1.4 1.1-2.6 2.6-2.6 3.3 0 .8-1.3-.1-3-1.9-1.9-2.1-2.8-4-2.5-5.3.3-1.2.7-5.9.9-10.6.3-6.9 0-9.2-1.5-12.2-1.1-2.1-2.2-5.9-2.6-8.5l-.6-4.8 2.8 2.5c1.5 1.4 5.1 5.7 8 9.6zm-141.8-8.4c-.3.8-.6.5-.6-.6-.1-1.1.2-1.7.5-1.3.3.3.4 1.2.1 1.9zm12 1c-.3.7-.5.2-.5-1.2s.2-1.9.5-1.3c.2.7.2 1.9 0 2.5zm-28 2c-.3.7-.5.2-.5-1.2s.2-1.9.5-1.3c.2.7.2 1.9 0 2.5zm134.1 2.8c2 0 8.4 3.6 11.3 6.3 2.3 2.2 2.7 3.6 3.2 10.4.3 4.3.2 12.1-.2 17.3l-.8 9.5-.1-11.5c0-6.3-.6-14.3-1.2-17.8-1.2-5.8-1.6-6.5-5.4-8.6-6.6-3.8-8.4-4.1-8.9-1.4-.4 2.1-.4 2-.6-.4 0-1.5-.7-3.1-1.3-3.5-.7-.4-2.2-1.9-3.3-3.2-2-2.4-1.9-2.4 2 .2 2.2 1.5 4.6 2.7 5.3 2.7zm11.8 1.8c-.9.8-1.3 0-1.9-3.8l-.6-3.5 1.5 3.4c.8 1.8 1.3 3.6 1 3.9zm-168.5-1.2-.9 3.9-.1-3.6c-.1-2 .2-3.9.6-4.2 1.2-1.3 1.3 0 .4 3.9zm127.6 3.1c-.2 1.6-.4.3-.4-2.7s.2-4.3.4-2.8c.2 1.6.2 4 0 5.5zm14.6 1.3c.4 3 .3 3.8-.3 2.5-.8-1.9-1.4-8.3-.6-7.4.2.2.6 2.4.9 4.9zm-103.5 1.5c.4-.3 0-1-.8-1.5-2.2-1.4-.7-1.2 3.3.5 4.3 1.8 5 1.9 4.1.4-.4-.8.1-.9 1.7-.4 1.3.4 3.8 1.1 5.4 1.6 1.7.4 4.7 1.1 6.8 1.4 2 .3 3.7 1 3.7 1.5 0 .6 1 1 2.3 1 1.3 0 3.8 1.5 5.7 3.5 1.9 1.9 3 3.5 2.6 3.5-.4 0 .6 1.4 2.3 3 2.6 2.6 2.8 3.4 2.1 6.1-1.2 4-1.4 4.3-4.2 3.6-2.1-.6-2.3-1.1-2-6.6l.4-6-3.5.6c-3.5.5-5.4-.7-4.2-2.8.5-.7 1.4-.4 2.6.7 1 .9 1.9 1.2 1.9.7 0-1.3-2.7-3.6-4.6-3.9-.8-.1-1.4.2-1.4.7 0 1.4-2.8 1.1-3.3-.4-.3-.7-.6-.5-.6.5-.1 2.9-3.5 2.1-7.4-1.7-3.3-3.2-6.6-4.8-5.2-2.5.8 1.2.8 1.2-3.5-.1-1.9-.5-4.4-1.2-5.5-1.4-1-.3-2.8-1.4-4-2.6l-2-2.1 3.3 1.7c1.9.9 3.7 1.4 4 1zm-4.3 2.5c1.6 1.7 1.5 1.8-2.1 1.5-2-.2-4.4-1-5.2-1.8-1.2-1.3-1-1.5 2.1-1.5 2.2 0 4.2.7 5.2 1.8zm121.2 3.2c-.3.8-.6.5-.6-.6-.1-1.1.2-1.7.5-1.3.3.3.4 1.2.1 1.9zM151 146.8c0 3.8-1.4 5.4-4.1 5-1.6-.2-2.3-.9-2.2-2.2.1-1.3-.2-1.5-1-.7-1.3 1.3 1.3 7.4 6.1 14.4 1.9 2.7 3.1 5.1 2.8 5.4-1 1 1.5 4.4 4.7 6.3 5.2 3.2 6.4 2.3 1.4-1.1-4.5-3-6.5-4.9-5.2-4.9.4 0 2.5 1.4 4.7 3.1 2.2 1.8 6.4 4.2 9.5 5.4 4.9 2 5.3 2.4 3.7 3.5-1.7 1-1.5 1.1 1.1.6 3.7-.6 16.4 2.7 17.6 4.6 1.3 1.9 1.1 3.4-.6 4.8-2.2 1.9-1.8 5.9 1 9.6 3.3 4.4 3.6 7.4.8 8.5-1.3.4-2.2.5-2.2.1.3-2-.3-2-2.1-.2-2.4 2.4-4.2 2.6-3.3.4.5-1.4.3-1.5-1.5-.5-1.1.6-2.4 1.6-2.7 2.1-.8 1.3-11.5 1.3-11.5 0 0-.6-.6-1-1.2-.9-3.1.4-4.8-.3-7.8-3.1-3.2-3-3.2-3.1-1.4-4.6 1.9-1.5-.2-.5-9.8 5.1-4.6 2.6-6.9 4.7-2.9 2.5 1.3-.7 2.2-.7 2.6 0 1 1.6-.6 3.2-2.4 2.4-.9-.4-2.6-.6-3.7-.6-1.6.1-2.4-.6-2.8-2.4-.4-1.3-1.1-2.2-1.6-1.9-.6.3-1 0-1-.7 0-.9-.3-.9-1 .2-.7 1.2-1.2.7-2.5-2.4-1.2-2.8-2.1-3.7-3.4-3.3-1.6.4-1.9-.4-2.5-4.7-.3-2.8-.6-8.5-.7-12.6 0-8.2-1-7.5-2.8 2-.8 4.7-.9 3.8-.4-5.5.6-12.3 2.9-20.1 7.2-24.4 4.3-4.3 10.9-9.1 14.5-10.6 3.2-1.3 3.5-1.3 3.9.3.3 1.2.5 1.1.6-.6.1-3.2 2.1-1.7 2.1 1.6zm-70.2-.5c.2 1.1-.3 1.7-1.6 1.7-2.6 0-3.4-1.1-2-2.7 1.4-1.7 3.2-1.2 3.6 1zm159.3-.3c8.3-1.3 9-1.2 5.4.5l-3 1.5 4.9-.4c3-.2 4.3-.1 3.5.5-.8.5-.9.9-.4.9.6 0 .3.5-.5 1-2 1.3-7 1.3-7-.1 0-1.3-3.9-.2-6.1 1.7-2 1.8-6.7 1.7-9.9-.1-3-1.7-4.4-1.9-3.5-.5 1 1.7 1.4 5 .6 5-.4 0-1.3 1.1-1.9 2.5-.6 1.4-1.5 2.4-1.9 2.3-.5-.1-2 .6-3.5 1.6-3.9 2.6-7.2 1.8-7.6-1.8-.7-6.2 1.9-9.5 8.9-11 6-1.3 9.7-2.4 11.5-3.4 1.2-.7 2.3-.7 3-.1.8.6 3.5.6 7.5-.1zM116 149.3c0 .7-.7 2.2-1.5 3.3-1.3 1.7-1.3 1.6-.3-1.4 1.3-3.4 1.8-4 1.8-1.9zm55.4.6c-5.4 2.5-7.4 5.5-7.4 11.2 0 4.1.4 5.1 3.5 7.8 2 1.7 4.3 3.1 5.3 3.1 1.1 0 .6-.7-1.5-2-4.1-2.5-6.6-7.2-5.8-11 1.3-6 11.5-11.1 11.5-5.8 0 1.3-1.1 3.6-2.5 5.2-2.9 3.4-3.1 4.3-.8 6.8.9 1 1.6 3.2 1.6 4.8 0 1.8.6 3 1.4 3 .7 0 1.2-.9 1-2.1-.1-1.3.6-2.6 1.8-3.3 1.1-.6 2.3-1.6 2.7-2.1 1.2-1.6.9-10.4-.3-12.7l-1.1-2.1 2.8 2c1.6 1.2 3.3 2 3.8 1.9.5 0 1.7 1 2.8 2.4 2.7 3.7 1.4 8.3-3.7 13.6-3.8 4-4.6 4.4-9.1 4.4-8.3 0-16-5.4-19.9-14-1.8-3.9-1.8-4 .6-6 4.5-3.8 11-6.8 15.4-6.9 1.2 0 .3.7-2.1 1.8zm85.6-.9c-2 1.2-1 1.9 4.1 2.9l4.4.8-4 1.1c-2.4.7-4.1.8-4.3.2-.2-.5-1.8-.7-3.5-.3l-3.2.6 2.9-3.2c1.7-1.7 3.5-3.1 4-3.1.6 0 .4.4-.4 1zm25.8 5.5c0 1.6-.2 1.5-.8-.5-.4-1.4-.8-3.4-.8-4.5 0-1.6.2-1.5.8.5.4 1.4.8 3.4.8 4.5zm-76.2-.7c-1 .2-2.2 0-2.8-.6-.6-.6 0-.7 1.9-.4 2.1.5 2.3.7.9 1zm-132.6.6c0 .3-.4.8-1 1.1-.5.3-1 .1-1-.4 0-.6.5-1.1 1-1.1.6 0 1 .2 1 .4zm175.2 4.1c5.7 3.8 7.3 6.8 5.8 10.5-1.6 3.9-8.2 9.6-12.8 11.1-10.7 3.5-21-3.1-21.4-13.8-.1-2.9.4-4.1 2.7-5.9 1.5-1.2 3.4-2 4.1-1.7.6.2 1.5 0 1.9-.6.3-.6 1.1-1.1 1.6-1.1.6 0 .8.4.5.9-.3.5.3 1.1 1.4 1.4 1.2.3 2 1.4 2 2.6 0 1.7-1 2.7-5.8 5.7-.2.1 0 1.3.4 2.8.3 1.4 1 2.3 1.5 2 .5-.3 1.3.5 1.8 1.8.6 1.7.5 2.5-.8 2.9-1.2.5-.9.9 1.3 1.4 6.6 1.8 15.6-4.8 15.6-11.4 0-3.8-3.5-9-7.3-10.7l-3.2-1.5 3.5.6c1.9.3 5.2 1.7 7.2 3zm-9.8-1.1c4 1.7 7.6 6 7.6 9.3 0 3.9-2.7 7.9-6.4 9.7-1.9.9-3.9 1.6-4.6 1.6-1.5 0-.3-4.1 1.6-5.6 2.2-1.8 1.8-10.6-.7-13.8-2.3-3-2.1-3.1 2.5-1.2zm24 1.1c-.4.8-.1 1.5.5 1.5s1.1-.7 1.1-1.6c0-.9.6-1.4 1.3-1.2.6.3 1.2 1.3 1.2 2.4 0 1.3-.8 2-2.7 2.2-2.2.3-2.8-.1-2.8-1.6 0-1 .3-2.2.7-2.5 1-1.1 1.3-.8.7.8zm67.6 4.1c0 1.7-2.2 1.4-2.8-.4-.2-.7.3-1.2 1.2-1.2.9 0 1.6.7 1.6 1.6zm-219.2 1.9c-.3.3-.9-.2-1.2-1.2-.6-1.4-.5-1.5.5-.6.7.7 1 1.5.7 1.8zm162.6 1.8c4.7 3.3 6 7.8 5.7 19.7-.2 11.4-2.9 22.9-4.1 18l-.6-2.5-.8 2.5c-.5 1.4-.9 2.7-1 3-1.7 6-12.5 19.6-12.6 15.8 0-2.2 3.9-8.8 5.3-8.8.5 0 .2.9-.8 2-2.6 2.9-1.3 3.5 1.4.6l2.2-2.4-3.2-1.1c-1.8-.6-3.5-.9-3.7-.6-.3.3 0 .5.6.5 1.6 0 .4 2.7-1.5 3.4-1.2.5-1.3 0-.8-2.4.4-1.9.3-3-.4-3-.6 0-1.1.4-1.1.8 0 .5-.7 1.7-1.5 2.8-1.4 1.7-1.4 1.6-.1-1.3 1.5-3 1.5-3.2-.5-3.8-2.5-.8-2.2-1.2-3.8 5-1.2 4.9-1.2 5.1 1.4 7.2 3.3 2.9 2.3 3-1.6.2-1.6-1.1-2.9-1.7-2.9-1.2 0 .4-.5 0-1-.9-.6-.9-2.4-2.3-4.1-3.2-1.6-.8-4.7-2.5-6.7-3.6-3.6-2.1-3.6-2.1-1.2-.1 1.4 1.1 3.3 2.3 4.3 2.7 2.6.8 2.1 2.1-1.4 3.3-4.4 1.5-5.9 1.4-8.2-.7-1.9-1.6-2-1.6-1.5.5l.6 2.1-5.7-1.9c-3.2-1.1-6.5-3.1-7.8-4.7-1.8-2.1-2.2-2.3-2.3-1 0 2.8-1.6 2.1-3-1.2-1.3-3.2-2.5-3.8-3.3-1.8-.3.9-.7.7-1.2-.5-.7-1.8 1.9-8.7 3.4-8.7 1.4 0 3.1-5 2.5-7.4-.5-2 .1-2.5 3.8-3.9 2.4-1 6.8-1.7 9.8-1.7 4.2-.1 5.1-.3 3.8-1.1-1-.5-5.5-1-10-1-7.9 0-11.4-1.1-10.2-3 .3-.5-.2-.9-1-.9-1.9 0-1.9.1-.6 3.4l.9 2.5-5.6-.4c-6.4-.5-9.4-2.5-7.4-4.9.9-1.1.9-1.5-.1-1.8-1.9-.7 1-8.5 3.3-9.1 1.3-.3 1.7-1.1 1.3-2.1-.9-2.4 2.9-2.1 5.7.5 1.3 1.1 1.8 1.8 1.2 1.4-.7-.3-1.3-.4-1.3 0 0 .3 1.2 1 2.6 1.5 2 .8 2.4 1.3 1.5 2.4-.8 1-.6 2 1.1 4.2 1.3 1.5 1.8 2.5 1.1 2.1-.6-.4-1.4 0-1.7.8-.3.9.1 1.8 1 2.2 1.9.7 5.4-2.4 3.8-3.5-.6-.4-1.3-1.5-1.7-2.5-.4-1-1.1-1.6-1.6-1.2-.5.3-1.2.1-1.5-.4-1-1.5 2.2-.6 4.2 1.2 2.1 1.9 4.3 2.4 2.4.5-.7-.7-1.2-1.6-1.2-2 0-1.2 2.9.6 6.1 3.5 4.3 4.2 7.1 5 16.8 5.3 7.4.3 10 0 12.3-1.4 4.3-2.5 3.4-3.5-1.2-1.2-2.1 1.1-4.7 2-5.7 2s.6-1.1 3.5-2.5c7.4-3.4 11.2-6.6 16.2-13.4 2.4-3.4 4.8-5.8 5.4-5.4.6.3 2.4 1.5 4 2.6zm-173.6-.8c5.2 2.2 8.1 5.2 7.7 8.1-.1 1.3.1 2.1.6 1.9.4-.3.9 0 1.1.7.6 1.7-1.6 3.8-3.9 3.8-1.4 0-1.2.4 1 1.9 4.8 3.1 8 9.6 4.8 9.7-.9.1-2.7.4-4.1.8-3.1.8-9.6-3.1-12.8-7.8-3.5-5.2-3-6 3.4-5.3l5.5.6-3.9-2.9c-2.2-1.6-4.3-3.3-4.7-3.9-.3-.6-1.5-1.1-2.5-1.1-1.6 0-1.9-.6-1.7-4 .2-3.6.4-4 3-4 1.5 0 4.4.7 6.5 1.5zm199.5 5.2c.4 1.8.3 3.4-.2 3.7-.4.3-.8-.8-.9-2.4 0-1.7-.3-4-.7-5.3-.4-1.6-.3-1.8.3-.7.5.8 1.2 2.9 1.5 4.7zm24.5.6c3.4 10.8 6.2 24.8 6.2 31.4 0 4.1 1.1 5.5 2.5 3.3.6-1 7-4 8.6-4 1.4 0 1.1 3.6-.8 8.2-2.5 6.4-5 9.2-9 9.9-2.9.5-3.6.3-4.3-1.5-.8-1.8-.9-1.7-.9 1.1-.1 1.7-.5 3.4-1 3.7-.5.4-.7-.4-.5-1.6.3-1.4 0-1.1-.7.7-.7 1.6-1.7 3.3-2.2 3.7-1.2.7-5.1-1.7-5.3-3.2-.1-.6-.2-1.7-.3-2.5 0-.8-.4-1.5-.8-1.5-.5 0-.6 2.3-.4 5.2.2 3.7-.2 6.2-1.4 8.5-2 3.7-2.7 4-4.5 1.8-1.8-2.2-3-1.8-3 1 0 1.3-.5 3.6-1.2 5-1.2 2.6-1.2 2.6-3-2.2-1.5-4.1-1.6-4.9-.3-5.5.8-.5 2.1-1.5 2.9-2.3 1.3-1.3 1.5-1.3 1.9.3.3.9.5-.2.6-2.5 0-2.3.6-5.4 1.2-7 1.2-3.4 5.5-7.6 6.9-6.8.5.3 1.9-1.5 3.1-4 1.9-4 2.1-5.5 1.4-11.8-1-9.1-1-13.5-.1-16.7.7-2.3.6-2.2-1.2.5-3.8 5.9-10.9 10.5-16.2 10.5-1.6 0-3.1-.3-3.1-.8-.5-2.9-.4-6 .3-5.6.4.3.8-.1.8-.9 0-2.9 7.7-7.7 12.5-7.7 1.4 0 2.5-.6 2.5-1.3 0-.8.9-2.2 1.9-3.1 1.1-1 2.5-3.1 3.1-4.7 1.5-3.5 2-3.2 3.8 2.4zM189 176.8c0 1.7-2.5 3.2-5.4 3.2h-3.1l3-2c3.1-2.1 5.5-2.6 5.5-1.2zm26.5 6.2c-.3.5-1.2 1-1.8 1-.7 0-.6-.4.3-1 1.9-1.2 2.3-1.2 1.5 0zm80 3c1 1.6-.5 5-2.1 5-1.5 0-1.8-1.8-.8-4.4.7-1.8 2-2.1 2.9-.6zm-206.3 6.7c2.4 5.5 2.6 12.3.3 13.5-.8.5-1.3 1.3-1 1.8.6 1-3.4.5-4.4-.6-1.9-1.8.3-19.4 2.4-19.4.4 0 1.5 2.1 2.7 4.7zm225.4-1.1c-.4 1.1.1 1.8 1.4 2.1 1.1.3 2 .8 2 1.2 0 1.7-6.6 8.4-10.1 10.1-4.3 2.3-7.2 2.4-11.1.7-2.6-1.2-2.6-1.3-1.3-4.5 1.1-2.4 2.8-3.9 6.7-5.7 2.9-1.4 6.3-2.5 7.4-2.5 1.2 0 2.7-.7 3.4-1.5 1.6-2 2.4-1.9 1.6.1zm-108.5.6c4.8 1.4 6 4.2 3 6.9-1.1 1.1-1.6 1.4-1.1.7.6-.7 1-2.2 1-3.5 0-3.1-6.1-4.7-13-3.5-4.2.8-4.8.7-3.9-.4 1.4-1.7 8.8-1.8 14-.2zm-93.8 4.8c1.9 1.3 4 3.3 4.7 4.4.7 1.2.9 1.8.5 1.4-.5-.5-1.4.1-2.2 1.1-1.6 2.4-6.4 2.5-10.8.4-3.2-1.6-9.5-7.2-9.5-8.4 0-2.8 12.8-2 17.3 1.1zm179.6 3.1c.1 3-2.2 4.5-3.9 2.4-.8-1-.7-2.3.6-5.2 1.4-3.4 1.7-3.6 2.4-1.8.5 1.1.9 3.2.9 4.6zm-86.3-3.8c-1 .7-1.8 2.8-1.9 5.1-.2 2.2-.7 4.1-1.3 4.3-.5.2-.9-1.3-.8-3.3.2-3.5 2.7-7.4 4.7-7.4.6 0 .3.6-.7 1.3zm-107 11.2c.7 2.7 1.3 4.3 1.3 3.4.1-1.7 3.1-4.8 3.1-3.3 0 .5 3.3.9 7.3.9 5.8 0 7.8.4 9.8 2l2.6 2.1-4.8 3.1-4.7 3-4-1.7c-3.8-1.7-3.9-1.7-3.5.1.8 3.1-.6 6.7-2.8 7.4-3.1 1-4.1-.6-4.1-6.6 0-4.5-.2-5-1-3.2-1.4 2.9-3.4 3.5-5 1.6-1.9-2.3-1.4-11.7.7-14.9 1.7-2.6 1.8-2.6 2.8-.8.6 1 1.6 4.1 2.3 6.9zm22.8-5.6c.3.5-.1 1.4-.8 2-1.2 1-1.3.8-.9-.8.6-2.3.9-2.5 1.7-1.2zm164.4 9.2c-.7 2-2.7-.9-2.1-3.1l.6-2.4.9 2.4c.5 1.3.7 2.7.6 3.1zm-159.6-.9c-.7.7-1.2.8-1.2.2 0-1.4 1.2-2.6 1.9-1.9.2.3-.1 1.1-.7 1.7zm186 .6c2.3 2.3-6.4 8.8-14.6 10.8-2 .5-2.7.4-2.2-.4.4-.8.2-1-.7-.6-.9.3-2.3-.6-3.6-2.4-1.9-2.8-2-3-.3-4.5 4-3.6 7.6-4.8 13.9-4.5 3.5.2 6.8.9 7.5 1.6zm-231.4 3.6c4.4.1 6.6.6 7.2 1.6.5.8 1 1.1 1 .6 0-.6.6-.1 1.4.9 3.9 5.3-6.7 7.8-14.8 3.4-2.1-1.1-4-1.8-4.2-1.6-.2.2 1.4 1.2 3.6 2.3 2.8 1.3 4 2.5 4 4v2.2l3.7-1.9c5.6-2.9 14.5-2.4 15.8.9.3.9-.4 2.5-1.7 4-2 2.1-2.9 2.3-7 1.9-2.6-.3-6.1-1.3-7.8-2.2-3-1.6-3.2-1.6-2.6.2.2 1 .9 4.4 1.5 7.5.6 3.1 2.2 9.1 3.6 13.3 3 9.1 3.1 10.1.5 11.5-1.1.6-2 1.9-2 3 0 1-.5 2.2-1 2.5-.6.3-.8 1.8-.5 3.3.8 4.5-5.2-8.7-7.9-17.3-3.7-11.6-5.6-23.4-5.6-34.1v-9.5l3.2 1.7c1.9 1 5.9 1.7 9.6 1.8zm81.2 3.5c3 2.4 3.2 2.9 1.9 4.8-2 3.3-.1 4.1 2.4 1.1 2.9-3.4 4.7-3.9 8.6-2.2 3.2 1.3 3.3 1.5 1.7 3.2-1.5 1.8-1.4 1.8 1.4 1.4 3.5-.5 7 2 7 4.9 0 2.5-1.7 3.3-2.8 1.3-.8-1.5-1.1-1.2-1.7 1.4-.7 3.4-3.8 6.2-6.7 6.2-.9 0-2.7-1-3.9-2.3l-2.2-2.2.6 2.4c.7 2.7-.9 6.7-3 7.5-.8.3-2.3.1-3.3-.4-3.5-1.9-5.6-1.1-7.3 2.5-2 4.3-3.7 4.5-3.7.6 0-4.2-1.6-7.8-3.9-9.1-5.4-2.8-10.6 3-8.1 9.1 1.5 3.6.4 5.2-3.1 4.7-1.9-.2-2.3-.8-2.1-2.8.2-1.4.4-4.3.5-6.5.2-3.8 0-4-2.8-4.3-4.4-.4-8.5-2.2-8.5-3.8 0-.7 1.4-2.9 3.1-4.8 5.3-6.1 13.7-6.8 19.2-1.8 3 2.9 3.5 2.3 1.1-1.3-.9-1.4-3.3-2.9-5.5-3.5-2.1-.6-3.9-1.5-3.9-1.9 0-1.4 5.9-6.1 8.3-6.6 7.9-1.6 12.8-.9 16.7 2.4zm40.4-1.7c1.4 1.9 1.6 2 1.6.4 0-2.3 2.2-1.6 3.5 1.2 1.3 2.9 2.8 2.8 1.9-.1-.6-2-.3-1.9 2.4.8 1.8 1.6 3.2 3.7 3.2 4.5 0 1.3.1 1.3 1 0 .8-1.3 1-1.2 1 .2 0 1 .5 1.8 1 1.8.6 0 1-.8 1.1-1.8 0-1 .3-1.2.6-.5.2.7.9 1.3 1.4 1.3.6 0 .7-.6.3-1.3-.6-.8-.3-.8.9.2 1.2.9 1.4 1.8.7 3.1-1 1.9-3.9 3.4-4.8 2.5-.3-.3 0-.5.6-.5.7 0 1.2-.5 1.2-1 0-1.6-1.9-1.2-4.2 1-1.2 1.1-2.7 1.9-3.3 1.7-.5-.2-2-.1-3.1.4-1.9.7-2.1.5-1.7-1.4.4-2 .3-2.1-1-.5-1.9 2.4-3.7 2.3-3.7-.1 0-1.1-.4-2.3-1-2.6-.6-.4-1 .6-1 2.2 0 2.2-.2 2.5-1 1.3-.5-.8-1-1.1-1-.7 0 .4-1.4-.8-3.1-2.8-3.7-4.2-5.1-3.9-1.9.4 1.7 2.5 1.8 3 .4 2.4-1.4-.5-1.5-.3-.4 1.8l1.1 2.4-2-2.5c-1.1-1.4-2.1-2.1-2.1-1.6s-.7.3-1.5-.4c-.8-.6-1.8-.9-2.3-.6-.6.3-1.5-.1-2.2-.9-.7-.8-1.9-1.5-2.6-1.5-1.9 0-3.8-4.4-2.9-6.7.7-1.6.9-1.5 1.5.7.5 1.4.8 1.8.9.9.1-.9 1.1-2.4 2.3-3.5 1.9-1.6 2-1.6.9-.1-2.2 2.8-.2 3.5 2.1.7l2.1-2.5-.7 2.5-.7 2.5 2-2.3c1.4-1.6 2.7-2.2 4.1-1.7 1.1.3 2.8.2 3.7-.4 2.5-1.5 3-1.4 4.7 1.1zm-74.9-.2c-.3.5-1.2 1-1.8 1-.7 0-.6-.4.3-1 1.9-1.2 2.3-1.2 1.5 0zm45.5 1.1c0 .5.5.7 1 .4.6-.3 1-.1 1 .4 0 1.2-1.1 1.4-3.4.5-.9-.3-1.3-1-1-1.5.7-1.2 2.4-1.1 2.4.2zm114 3c0 1.3-3.2-.4-5.1-2.7-1.3-1.6-1.2-1.6 1.9 0 1.7.9 3.2 2.1 3.2 2.7zm-164-1c-.8.5-1.9 1.3-2.5 1.7-.5.4-3.2 4-5.9 8-4.5 6.6-9.4 12.3-7.1 8.2.4-.8 1.4-2.2 2.1-3 .7-.8 2.8-4.2 4.8-7.4s4.8-6.7 6.3-7.6c2.9-1.8 4.9-1.7 2.3.1zm-12.9 5.4-2.6 4.3-.3-4c-.5-5.9.2-7 3.2-5.7l2.4 1.1-2.7 4.3zM54 222c0 .5-.4 1-1 1-.5 0-1-.5-1-1 0-.6.5-1 1-1 .6 0 1 .4 1 1zm172 2.8c0 1.5-.2 1.5-1 .2-1.3-2-1.3-3.3 0-2.5.6.3 1 1.4 1 2.3zm113.7-1.5c.1.2-.4 2.2-1.3 4.5-1.5 3.6-2.1 4.1-5.7 4.7l-4 .7 3 1.5c2.8 1.3 2.9 1.7 1.9 3.9-1.2 2.6-5.8 4.4-11.4 4.4-2.2 0-4.1-.8-5.9-2.6-2.5-2.5-2.5-2.7-.7-3.7 1-.6 2.9-2.1 4.2-3.5 1.7-1.8 2.6-2.2 3.5-1.3.6.6 1.8 1.1 2.6 1.1 1.1 0 1-.4-.4-2-1.6-1.8-1.7-2.1-.1-4.4 1.9-2.9 6.8-4.7 11-4 1.6.2 3.1.6 3.3.7zm-39.5.8c1.5.8 2.3.8 3.1 0 .8-.8 1.4-.5 2.3 1.1 1 1.9.9 2.4-1.1 4-3.4 2.7-4.8 2.2-7.2-2.2-2.3-4.3-1.4-5.2 2.9-2.9zm-8.4 3.4c-.3.3-.9-.2-1.2-1.2-.6-1.4-.5-1.5.5-.6.7.7 1 1.5.7 1.8zm-37.3.5c-.3.5-1.2 1-1.8 1-.7 0-.6-.4.3-1 1.9-1.2 2.3-1.2 1.5 0zm-203.8 2.2c-.3.8-.6.5-.6-.6-.1-1.1.2-1.7.5-1.3.3.3.4 1.2.1 1.9zm209.3 3.3c0 4.3-.3 5.5-1.6 5.5-1 0-1.4-.6-1.1-1.8.3-.9.8-3.4 1.2-5.5.9-5.3 1.5-4.6 1.5 1.8zm87.7-3.3c-.3.8-.6.5-.6-.6-.1-1.1.2-1.7.5-1.3.3.3.4 1.2.1 1.9zm-105.2-.2c-.3.5-1.1 1-1.6 1-.6 0-.7-.5-.4-1 .3-.6 1.1-1 1.6-1 .6 0 .7.4.4 1zm52.6 5.7c1.2 3.8 2.5 7.2 2.9 7.8 2.5 3.3 5 15.3 4.9 23.4l-.2 8.6-.7-9.5c-.5-5.2-1.5-11.5-2.4-14-3.1-8.2-7.6-21.5-7.6-22.3 0-2.1 1.1 0 3.1 6zM87.5 234c.3.5-.1 1-.9 1s-1.8-.5-2.1-1c-.3-.6.1-1 .9-1s1.8.4 2.1 1zm14.8 2.1c-1 1.7-2.4 3.3-3 3.6-.7.3-1 1-.7 1.5.9 1.5-7.8-.1-9.5-1.7-2.1-2.1 5.1-6.5 10.7-6.5h4.3l-1.8 3.1zm151.7-1c0 1.1-.5 2.9-1.1 4.1-1.2 2.2-.4 6.8 1.1 6.8.6 0 1-.7 1-1.5s.4-1.5.9-1.5c.6 0 .7 2.3.4 5.4-.6 6 .3 12.6 1.7 12.6.6 0 1-.8 1.1-1.8 0-.9.7.8 1.5 3.8 1.9 7.1 5.5 13.1 10.5 17.7 2.3 2.1 4.8 5.1 5.6 6.8 1.4 2.8 1.2 2.7-1.7-.8-1.7-2-3.6-3.4-4.1-3.1-.6.3-2-.2-3.1-1.3-2.1-1.8-2.1-1.8-.9.5 1.2 2.3 1.2 2.3-1.3.7-1.4-.9-3.1-1.5-3.8-1.3-.7.3.1 1.2 2 2.2 1.8.9 3.6 1.5 4.1 1.2.9-.6 4.3 2.8 6 6.1 1.2 2.3 1.4 8.4.5 11.9-.7 2.5-5.5 4.4-11.2 4.4-2.3 0-4.2.4-4.2.9 0 1.7 1.5 2 7.4 1.2 4.9-.7 5.5-.6 4.3.6-1 1-5.9 1.8-16.3 2.5-14.8 1-21.7 2.7-11.8 2.9 2.7.1 6.3.4 7.9.8 2.5.6 2 .8-3.4 1.4-3.5.4-9.4.7-13 .8-4.6 0-6 .3-4.6.9 1.1.5 3.5.9 5.3.9 5.6.2 3.5 2.1-2.3 2.1-6.9 0-16.2-3.3-17.1-6.2-.3-1.1-.1-2.4.5-2.7.6-.4-1.6-3.1-5.4-6.6-3.6-3.3-6.5-6.4-6.5-6.8 0-.5.5-.5 1-.2.6.4 1.8-.3 2.8-1.4.9-1.2 4-2.7 6.8-3.3l5.1-1.2-5.3-5.1c-5.4-5.1-6.7-7.5-3.9-7.5 1.2 0 1.3-.5.3-2.5-1.5-3.2.8-6.8 6.2-9.5 4.4-2.3 7.8-2.7 4-.5-2.4 1.4-2.3 1.4 2.6 1.5 2.8 0 7.6.5 10.8 1.1 3.1.7 5.9 1 6.2.7.2-.3 0-1.8-.6-3.4l-1.1-2.8 2.6 2.8c3.3 3.6 4 2.9 1.9-2-1.9-4.5-3.6-25.1-2.2-27.7 1.5-3-.1-1.8-2.2 1.5-2.3 3.8-2.7 2.1-.5-2.2 2-3.8 5.9-5.9 11.3-6 3.6 0 4.2.3 4.2 2.1zM57 238c0 3.2-1.4 4-2.4 1.4-1-2.7-.7-4.4.9-4.4 1 0 1.5 1 1.5 3zm287-1.3c0 1-.4 2.5-1 3.3-.8 1.2-1 1.2-1.6-.3-.7-2 .1-4.7 1.6-4.7.5 0 1 .8 1 1.7zm-133.4 1.8c2.5 3.4 6.6 5 9.2 3.6 3-1.6 4-1.3 1.8.4-3.4 2.6-6.9 1.8-11.1-2.5-2.1-2.2-3.4-4-2.8-4 .5 0 1.9 1.1 2.9 2.5zm-24.9 1.1c.2.7-1 2.6-2.7 4.3-1.8 1.8-2.6 3.1-1.8 3.2.7 0 0 .7-1.7 1.5l-3 1.5 2.8-.4c1.8-.3 2.5-.1 1.9.5-1.1 1.1-15.3 4.7-19.6 5-1.7 0 1.3.4 6.7.8 14.4 1 14.3.8 16.8 23.6 1 9.8 2.2 18.7 2.5 19.6.8 2.8-2.7 7.7-7.1 9.8-8.1 3.9-33.3 5.2-40.9 2.1l-3-1.2 3.2-1.9c2.3-1.4 3.3-2.9 3.7-5.7 1-5.7 1.3-6.2 1.4-1.9.1 2.2.9 4.9 1.9 6 1.6 2 1.6 2 0 .7-1-.7-1.8-.9-1.8-.3 0 1.5 2.1 2 5.7 1.5 4.1-.6 5.1-1.9 5.8-7.3.3-2.5.2-3.9-.1-3.3-.3.7-1.3 1.3-2.2 1.3-1.3 0-1.4.2-.3.9 1 .6 1 1 .1 1.6-.6.4-1.7.2-2.3-.4-.6-.6-.7-1.1-.2-1.1.5 0-.2-1.1-1.4-2.4-5-5.3-7.6-29.2-3.8-34.9 1.7-2.6 1.7-2.7-.2-2.7-3.9 0-4.4 3.2-3.1 19.7 1 13.8 1 15.7-.4 17.9-2.1 3.1-4.4 3.1-5.2-.1-.3-1.4-.9-2.5-1.3-2.5-.8 0-3.1-19-3.1-25.7 0-2.3.5-4.5 1-4.8.6-.4.8-1.1.5-1.6-.8-1.2 1.2-1.1 3.8.2 2.2 1.2 2.2 1.2.2-1-1.4-1.6-2.6-2.1-4.5-1.6-2.3.5-2.3.4-.8-.8 1-.8 1.5-1.7 1.1-2-.3-.4.4-.7 1.7-.7 1.2 0 3.4-1.2 4.7-2.6 2.2-2.4 2.4-3.2 1.8-7.5-.6-4.4-.5-4.8 1.1-4.2 1.3.5 1.5.3 1-.8-.4-.8.2-.3 1.3 1 1.2 1.3 2.1 3.1 2.1 4.1 0 .9.8 2.8 1.8 4.1 2.2 2.9 3.6 6.3 2.2 5.4-.6-.3-1-.2-1 .4 0 1.6 2.1 2.4 3.3 1.2.8-.8.9-1.6.1-2.8-.8-1.3-.5-2.5 1-5 2-3.1 2.3-3.3 6.7-2.7 4 .5 5 .2 6.8-1.7 1.1-1.3 2.1-2.6 2.1-2.9 0-.3 1.6-.4 3.5-.2 2.8.3 3.9-.1 5.7-2.2 2.3-2.6 4.8-3.1 5.5-1zm19 4.6c-.3.7-.5.2-.5-1.2s.2-1.9.5-1.3c.2.7.2 1.9 0 2.5zm104.7-2c-.5 1-.4 1 .6.1.9-.9 2.3-.8 5.9.3 2.5.7 6.3 1.4 8.4 1.4 3.5 0 3.8.2 3.2 2.2-.4 1.3-1.6 3.2-2.8 4.2-1.7 1.5-1.8 1.8-.4 1.3 2.2-.8 2.2 0-.7 7.5-3.4 9-7.1 16.9-11 23.4l-3.4 5.5-.7-7.6c-.6-6.6-.4-8.2 1.6-13 1.8-4.4 2.8-5.5 5.1-6.1 4.8-1 2.6-1.5-2.5-.5-4.6.8-4.7.8-4.7-1.8 0-1.4-.3-3.6-.6-4.9-.8-2.9.7-2.8 4.4.3 2.8 2.3 3 2.4 3.5.6.3-1.3 1.6-2.1 3.8-2.4 2-.2.8-.4-2.9-.5-5.5-.2-6.6-.5-8.6-2.9l-2.4-2.7 2.1-2.8c2.1-2.9 3.4-3.8 2.1-1.6zm-201.8 1.2s.8 1.3 1.7 2.8c1.6 2.5 2.4 5.8 1.2 4.6-.3-.3-2.2 1-4.2 2.8-2 1.9-4 3.1-4.4 2.7-.3-.5-1.1-2.7-1.7-5.1-.9-3.8-.8-4.4.9-5.3 1-.5 1.9-1.7 1.9-2.5 0-1.1.6-1.4 2.3-.8 1.2.3 2.2.7 2.3.8zm94.2 2.1c-.3.3-.9-.2-1.2-1.2-.6-1.4-.5-1.5.5-.6.7.7 1 1.5.7 1.8zM62 248c0 1-.4 2.1-.9 2.5-1.2.7-2.5-3.1-1.6-4.5.9-1.5 2.5-.2 2.5 2zm69.2 2.2c.3 2.9.1 3.5-.9 2.6-1.4-1.1-1.8-6-.6-7.2.9-.8 1-.4 1.5 4.6zM339 248c0 2.2-1.6 3.5-2.5 2-.9-1.4.4-5.2 1.6-4.5.5.4.9 1.5.9 2.5zm-135.6 1.2c-.4 1.3-1.3 5.2-2 8.8l-1.3 6.5.3-6c.2-3.3 1-7.2 1.7-8.8 1.5-3.3 2.3-3.6 1.3-.5zM45 250.6c0 1.4-.4 2.3-1 1.9-.5-.3-1-1.5-1-2.6 0-1 .5-1.9 1-1.9.6 0 1 1.2 1 2.6zm310.4-1.7c.8 1.2-.3 4.1-1.5 4.1-.5 0-.9-1.1-.9-2.5 0-2.5 1.4-3.4 2.4-1.6zm-230.7 11 .6 4.2-2.7-1.1c-4.6-1.7-6.7-1.1-10.4 2.7-2 2.1-4 3.6-4.6 3.4-.6-.2-2.6-.7-4.4-1l-3.3-.6 2.6-5.2c2.7-5.3 6.7-8.2 11.7-8.4 1.2 0 3.2-.4 4.3-.9 2.9-1.1 5.5 1.8 6.2 6.9zm-28-3.7c-.3.8-.6.5-.6-.6-.1-1.1.2-1.7.5-1.3.3.3.4 1.2.1 1.9zm25.1 8.4c2.1.6 2.2 1.1 2.1 9.3l-.1 8.6-1.3-8.3c-1.2-7.8-2.5-11.8-2.5-7.8 0 .9-1.2 2.1-2.6 2.6-5.4 2.1-7 .6-3.4-3 2.1-2.1 3.9-2.4 7.8-1.4zM93.5 267c.3.5-.2 1-1.2 1-1.7.1-1.7.2.1 1.5 1.1.8 3.1 1.5 4.5 1.5 2.1 0 2.3-.2 1.1-1.1-1.3-.9-1.2-1 .3-.5 1 .3 4.7 1 8.2 1.6 7.4 1.2 11.6 2.6 12.7 4.3 1.6 2.6.8 6.7-1.9 9.2-2.5 2.3-3.5 2.6-8.3 2.2-3-.2-7-.9-8.8-1.5-2.9-1-3.2-.9-2.1.4.9 1.1.2 1-3.2-.4-4.7-2-8.1-6.6-9.4-13l-.7-3.4 2.6 1.7c1.5 1 2.9 1.5 3.2 1.2.3-.3-.5-.8-1.7-1.2l-2.2-.7 2.4-1.9c2.8-2.1 3.5-2.3 4.4-.9zm-31.3 3.2c-1.5 1.5-2.6.4-1.8-1.8.5-1.3.9-1.5 1.8-.6s.9 1.5 0 2.4zm275.8-.6c0 1.4-1.2 1.9-2.3.8-.9-.9.4-3.5 1.4-2.8.5.3.9 1.2.9 2zM65 271c0 .5-.4 1-1 1-.5 0-1-.5-1-1 0-.6.5-1 1-1 .6 0 1 .4 1 1zm221.8 2c1.7 1.1 3.2 2.3 3.2 2.6 0 .3-1.1-.1-2.5-1s-4.8-1.7-8.2-1.7c-5.2-.1-5.4-.2-2.3-.9 5.6-1.2 6.3-1.1 9.8 1zm-86.7 6.6c-.6 3.3-1.4 8.6-1.8 11.9l-.8 6-.3-5c-.3-4.4 2.6-20 3.6-19.1.2.2-.2 3-.7 6.2zM52 277.1c0 2.4-2.3 2.1-2.8-.4-.2-1 .3-1.7 1.2-1.7 1 0 1.6.9 1.6 2.1zm297-.7c0 .8-.4 1.8-1 2.1-.5.3-1-.3-1-1.4 0-1.2.5-2.1 1-2.1.6 0 1 .6 1 1.4zm-47.1 9.1c2.7 5.3 3.9 16.5 2.2 20.5-.8 2-.9 1.4-.4-3.1.4-4.3.1-6.3-1.3-9-1-1.9-1.9-4.9-1.9-6.8-.2-3.4-.5-3.8-7.7-9.4-1.3-1-.3-.7 2.2.6 3.2 1.8 5.2 3.8 6.9 7.2zm-23.8-4.8c1.3 1.6 1.2 1.7-.3.4-1-.7-1.8-1.5-1.8-1.7 0-.8.8-.3 2.1 1.3zM62 282.5c0 .8-.6 1.5-1.4 1.5-1.7 0-2.8-1.4-1.9-2.4 1.2-1.2 3.3-.6 3.3.9zm233 5.5c.9 1.9 2 5.1 2.4 7 .5 3.1.4 3-1.1-1-.9-2.5-2.7-6.2-4-8.2-1.2-2.1-2.3-4.1-2.3-4.5.1-1.2 2.9 2.7 5 6.7zm44.5-6c.3.6-.1 1.3-1 1.6-1.9.8-3 0-2-1.5.8-1.4 2.2-1.4 3-.1zm-253.9 3.2c-.3 1.8-.1 6 .4 9.2.8 5.2 1.6 6.7 5.7 11 4.9 5.1 3.4 4.6-2.4-.8-2.4-2.1-3.5-4.4-4.4-8.4-1-5-.5-14.2.8-14.2.3 0 .3 1.5-.1 3.2zm-33.6-.6c0 .8-.4 1.2-1 .9-.5-.3-1-1-1-1.6 0-.5.5-.9 1-.9.6 0 1 .7 1 1.6zm11.7 5.4c1.2 0 2.7.9 3.3 2 .6 1.1 2.9 2.8 5.1 3.6 3.6 1.5 3.9 1.9 3.4 4.8-.2 1.7-.9 6.4-1.5 10.4-.6 4.1-1.8 8.8-2.8 10.4-.9 1.7-2.3 4.1-3 5.4-1.3 2.5-3.2 3.2-3.2 1.3 0-.6-1.5-.9-3.5-.8-1.9.2-3.9-.1-4.4-.6-.7-.7-.8-8.1-.4-20.2.6-19.2.6-19.2 2.7-17.7 1.1.7 3.1 1.4 4.3 1.4zm57.4 1.1c-1.7 4.7-5.9 8.6-10.6 9.9-5.1 1.4-11.8.7-15.4-1.7-1.9-1.2-2.5-1.3-3.2-.2-1.4 2.3-2.3-1.9-1.1-4.7 1.4-2.9 6.6-3.6 5.5-.8-.7 1.8-.7 1.8 8-.4 3.2-.9 3.6-.8 2.6.4-3.2 3.8 7.9-.5 11.5-4.5 2.4-2.6 4-1.4 2.7 2zm220.3 4.1c.3 4 .7 12.9.9 19.8l.2 12.5-3.8-.3c-2.1-.2-4.5.3-5.4.9-1.2 1-1.6 1-2.3-.1-.5-.8-.6-1.8-.4-2.2.3-.4.1-.8-.4-.8-1 0-2.8-7.9-3.7-16.5-.3-3.3-.9-7.5-1.2-9.3-.5-2.9-.2-3.3 2.5-4.3 1.6-.6 3.2-1.9 3.5-3 .3-1.2 1.4-1.9 2.9-1.9 1.2 0 3-.5 3.8-1 2.6-1.7 2.8-1.2 3.4 6.2zM286 293c0 .5-.5 1-1.1 1-.5 0-.7-.5-.4-1 .3-.6.8-1 1.1-1 .2 0 .4.4.4 1zm.4 5.4c-.6 1.6-2.4 2.3-2.4.8 0-1 2.2-3.3 2.7-2.8.2.2.1 1.1-.3 2zm-161.3 11.9c-.7.7-2.2.5-4.8-.5-2.1-.9-5.3-2.2-7.1-2.8-1.8-.7-3.1-1.4-2.9-1.6.5-.6 9.9 2.5 11.4 3.7.7.7 1.6 1 1.9.7.7-.7-3.9-3.6-7.1-4.4l-2.6-.6 3.3-2.1c1.8-1.1 4.1-2.1 5-2.2 1-.1 2.1-.5 2.5-.9.5-.4.9 1.6 1.1 4.5.2 2.8-.1 5.6-.7 6.2zM83.5 307c.3.5.1 1-.4 1-.6 0-1.1-.5-1.1-1 0-.6.2-1 .4-1 .3 0 .8.4 1.1 1zm29.5 2.6 4.5 2.3-3.8.1c-2.3 0-3.6.4-3.2 1 1.1 1.7-.5 1.1-4-1.6-1.8-1.4-3.6-3.2-3.9-4-.5-1.3 0-1.4 2.7-.9 1.7.4 5.2 1.8 7.7 3.1zm203-2.6c0 .5-.5 1-1.1 1-.5 0-.7-.5-.4-1 .3-.6.8-1 1.1-1 .2 0 .4.4.4 1zm5.4 2.6c.3.9.4 1.9.1 2.4-1.3 2.1 8 22.7 14 31.1l3.4 4.7-2.1 1.9c-2 1.8-2.1 1.8-1.4-.5.6-1.7.3-2.2-.9-2.2s-1.6.7-1.3 2.7c.3 2.3-.7 3.3-8.7 8.8-19 12.9-52.7 24.9-86.1 30.7-18.8 3.2-57 3.2-75.8 0-22.8-3.9-42.3-9.6-61.8-17.9-17.5-7.4-35.8-18.9-35.8-22.7 0-1.2-.5-1.6-1.5-1.3-.8.4.1-1.5 2-4.2 4.9-6.7 9.5-17 10.8-24.1.6-3.3 1.5-6 1.9-6 .5 0 .8-.9.8-2 0-2.3.4-2.4 3.1-.9 1.5.7 2.4.7 3.4-.1 1-.8 1.6-.7 2.3.6 1.3 2.3 7.4 4.4 15.7 5.4 3.9.4 7.9 1.1 8.9 1.6 1.4.5 1.7.4 1.2-.4-.9-1.5 2-1.6 6.1-.2 2.2.8 3.3 2.1 4.1 4.9 1.3 4.3 3.2 5.4 12.6 7.6 7.8 1.9 27.2 1.9 36.8.1 9.5-1.7 41.9-1.5 46.3.4 5.2 2.3 23.1 2.5 30.6.4 3.5-1 8.2-1.7 10.3-1.7 2.6.1 7.4-1.4 14-4.2 8.4-3.6 10.3-4.1 11.6-3 2.9 2.4 5.6 2.6 10.4.5 2.8-1.3 5.5-3.5 6.9-5.5 2.2-3.4 6.2-5.1 7.4-3.2.4.6 1 .4 1.7-.5 1-1.4 6.4-4.7 7.7-4.8.4 0 1 .7 1.3 1.6zm-19.4 1.9c-.7.9-1.5 1.3-1.8 1-.3-.2.1-1.1.8-2 .7-.9 1.5-1.3 1.8-1 .3.2-.1 1.1-.8 2zm-112.4 1.9c0 1.3-.4 2.2-.8 1.9-.5-.2-.8 0-.8.6 0 .5-.9 1.3-2 1.6-1.1.4-1.8 1.1-1.5 1.6.4.5.1.9-.5.9s-.8.5-.5 1.1c.4.6-.3 1.3-1.6 1.6-2.1.6-2.2.7-.3 1.3 3 1.1-7.4 3-18.6 3.5-6.4.3-8.2.1-5.5-.4l4-.8-3.4-.2c-1.8 0-6.3-.7-10-1.3-6.2-1.2-6.4-1.3-3.1-1.9l3.5-.6-4.5-.8c-4-.8-4.2-1-2-1.6 2.4-.7 2.4-.7-.5-.8-2.3-.1-2.7-.3-1.5-1.1 1.2-.8 1.2-1-.5-1.1-6-.3 4.7-1.7 18-2.3 24.4-1.2 27.5-1.5 29.3-2.5 2.6-1.5 3-1.3 2.8 1.3zm27 8.1c2.6 1.4 3.9 2.5 2.9 2.5-1.7 0-8.5-3.7-8.5-4.6 0-.7.8-.4 5.6 2.1z"/><path d="M186.5 41c-2.3 2.6-.8 2.6 2.5 0 1.8-1.4 2.1-2 .9-2-.9 0-2.4.9-3.4 2zm117.7 113c0 1.4.2 1.9.5 1.2.2-.6.2-1.8 0-2.5-.3-.6-.5-.1-.5 1.3zm-1 7c0 1.4.2 1.9.5 1.2.2-.6.2-1.8 0-2.5-.3-.6-.5-.1-.5 1.3zm-159.1-.4c0 1.1.3 1.4.6.6.3-.7.2-1.6-.1-1.9-.3-.4-.6.2-.5 1.3zm1 6.9c0 2.3-.6 4.6-1.3 5.3-.7.7-.8 1.2-.2 1.2 1.8 0 3.1-4.3 2.3-7.5-.6-2.8-.7-2.8-.8 1zm-19 .1c0 1.1.3 1.4.6.6.3-.7.2-1.6-.1-1.9-.3-.4-.6.2-.5 1.3zm15.1 5.4c0 1.4.2 1.9.5 1.2.2-.6.2-1.8 0-2.5-.3-.6-.5-.1-.5 1.3zm14.2 9.2-1.9 2.1 3-1.8c4.1-2.6 4-2.5 2.3-2.5-.8 0-2.3 1-3.4 2.2zm11.1 1.8c-.3.5.1 1 1 1s1.3-.5 1-1c-.3-.6-.8-1-1-1-.2 0-.7.4-1 1zm14.3.7c.7.3 1.6.2 1.9-.1.4-.3-.2-.6-1.3-.5-1.1 0-1.4.3-.6.6zm-48.8 5c0 .5 2.3.6 5.1.4 3.6-.2 5.4.1 6 1 .6 1 .9 1.1.9.1 0-.8 1.6-1.2 4.6-1.2 3.7 0 4.5.3 4 1.5-.3.8-.1 1.5.3 1.5.5 0 1.2-.7 1.5-1.6.5-1.3 1.7-1.5 6.4-1.1 3.8.4 4.7.3 2.7-.2-3.8-1.1-31.5-1.4-31.5-.4zm36.8 2c.7.3 1.6.2 1.9-.1.4-.3-.2-.6-1.3-.5-1.1 0-1.4.3-.6.6zm-16.8 2.8c-2.5.7-3.7 1.3-2.7 1.4 1.5.1 1.7.7 1.2 3.5-.4 1.8-.3 3.6.2 3.9 1.3.8 5.5-2.2 4.8-3.3-.3-.5-.3-2 .1-3.4.5-2.2 1.2-2.5 6.2-2.9l5.7-.3-5.5-.1c-3-.1-7.5.5-10 1.2zm1.1 4.1c-.9 2.8-.9 2.9-1 .3-.1-1.4.2-2.9.6-3.2 1.1-1.2 1.3-.2.4 2.9zm28.5-4.1c-.3.8-.1 1.5.4 1.5.6 0 1-.7 1-1.5s-.2-1.5-.4-1.5-.6.7-1 1.5zm-50.6 1c0 .5.5 1.7 1 2.5s1 1 1 .5c0-.6-.5-1.7-1-2.5s-1-1.1-1-.5zm-2 2.5c0 1.1.4 2 .9 2s.7-.9.4-2c-.3-1.1-.7-2-.9-2-.2 0-.4.9-.4 2zm12.2-.7c-2.5.8-3.1 1.4-2.6 2.6.7 1.5 1.1 4.6 1.3 9.3.1 1 .5 1.8 1 1.8 1.2 0 .6-7.2-.8-9.8-1-1.8-.6-2.2 3.2-3.5 4.7-1.7 3-2.1-2.1-.4zm-7.8 2.5c-.7.5-.6 1.5.4 3.2l1.3 2.5-.4-2.7c-.3-1.9.1-2.8 1.2-3.1 1.3-.4 1.3-.5.1-.6-.8 0-2 .3-2.6.7zm14.2.8c-.9 2.4-.7 5.4.4 5.4.6 0 1-1.6 1-3.5 0-3.8-.4-4.4-1.4-1.9zm12.9-.6c-.3.6.1.7.9.4 1.8-.7 2.1-1.4.7-1.4-.6 0-1.3.4-1.6 1zm52.9-47.5c-1 .8-1.4 1.4-.9 1.5 1.5 0 4-1.8 3.4-2.4-.3-.3-1.4.1-2.5.9zm3.2 2.1c-.3.9-.6 2.7-.6 4.1 0 2.2.2 2.4 1.6 1.3 2.9-2.5 3.4-4.5 1.4-5.8-1.4-.9-1.9-.8-2.4.4zm-28.9 4.5c.3 2.4.7 4.6.9 4.8.9 1 .3-6.5-.5-7.8-.6-1-.8.1-.4 3zm-1 7.4c-.4.8-2.1 2.4-3.9 3.5-1.8 1.1-2.7 2-2.1 2 1.7 0 8-5.7 7.2-6.5-.4-.3-.9.1-1.2 1zm38.4-6.1c-1.8 2.1-2.5 8.1-1.3 10.2.9 1.5 1 1.2.5-1.8-.3-2.3 0-4.7 1-6.7 1.7-3.4 1.6-3.9-.2-1.7zm1.6 14.7c1.2 1.2 2.4 2.1 2.7 1.8.2-.2-.8-1.3-2.2-2.3l-2.7-1.9 2.2 2.4zm36.9-.6c-.3.9-.6 2.2-.5 2.8 0 .7.5.1 1-1.2s.8-2.6.5-2.8c-.2-.2-.6.3-1 1.2zm-2.5 7.1c-.6 1.5-.9 3.5-.6 4.5 1.1 3.3 2 2.1 2-2.6 0-2.5 0-4.5-.1-4.5l-1.3 2.6zm3 6c0 1.1.3 1.4.6.6.3-.7.2-1.6-.1-1.9-.3-.4-.6.2-.5 1.3zm-14.3.1c.7.3 1.6.2 1.9-.1.4-.3-.2-.6-1.3-.5-1.1 0-1.4.3-.6.6zM235 190c0 .5.5 1 1.1 1 .5 0 .7-.5.4-1-.3-.6-.8-1-1.1-1-.2 0-.4.4-.4 1zm11.4 1.9c2.1 2.3 2.6 2.6 2.6 1.1 0-.5-1-1.5-2.2-2.1-2.3-1.2-2.3-1.2-.4 1zm21.2.6c-.3.9-.6 2.2-.5 2.8 0 .7.5.1 1-1.2s.8-2.6.5-2.8c-.2-.2-.6.3-1 1.2zm-24.6 1.4c0 .4 1.2 1.4 2.8 2.2 1.5.7 3 1.5 3.3 1.6.3.2.6-.3.6-1.2 0-.8-.3-1.3-.5-1-.3.3-1 .1-1.6-.4-1.8-1.3-4.6-2.1-4.6-1.2zm-20.8 5.7c.3.3 6.4.5 13.6.5 12.8-.1 13-.1 12.4 2.1-.3 1.4.1 2.6 1.3 3.4 2.9 2.1 3.4 1.7 2.8-2.2-.6-3.5-.5-3.6 1.5-2.5 1.7.9 2 1.7 1.5 4.1-.3 1.7-.2 3 .1 3 1.7 0 3.8-3.2 3.3-5-.4-1.5 0-2 1.6-2.1 1.2-.1-.3-.5-3.3-.9-6.4-.9-35.6-1.3-34.8-.4zm42.8 1.8c0 .2 1.3.6 2.9.8 1.7.2 2.8.1 2.5-.4-.5-.8-5.4-1.2-5.4-.4zm-42.4 2.2c-.7 1.7 0 3.4 1.4 3.4.4 0 .7-1.1.6-2.5-.1-2.8-1.1-3.3-2-.9z"/><path d="M229.3 202.7c.9.2 2.3.2 3 0 .6-.3-.1-.5-1.8-.5-1.6 0-2.2.2-1.2.5zm5.5 1c.7.3 1.6.2 1.9-.1.4-.3-.2-.6-1.3-.5-1.1 0-1.4.3-.6.6zm7.2 1.8c4.6 1.8 6.4 1.7 2.5 0-1.6-.8-3.7-1.4-4.5-1.4-.8 0 .1.7 2 1.4zm27.1 1.1c0 1.1.3 1.4.6.6.3-.7.2-1.6-.1-1.9-.3-.4-.6.2-.5 1.3zm-42.6.4c.3.5.8 1 1.1 1 .2 0 .4-.5.4-1 0-.6-.5-1-1.1-1-.5 0-.7.4-.4 1zm34.2.4c-.4 1-.5 2.1-.2 2.4.9.9 1.7-.6 1.3-2.5-.3-1.7-.4-1.7-1.1.1zm-29.2 1.6c1 1.1 2 2 2.3 2 .3 0-.3-.9-1.3-2s-2-2-2.3-2c-.3 0 .3.9 1.3 2zm16.5.6c0 1.4-.4 3.4-1 4.4-.8 1.4-.5 2.1 1.5 3.4 2.4 1.6 2.4 1.5 3.4-2.2 1.5-5.1 1.4-6.9-.5-7.6-2.7-1-3.4-.7-3.4 2zm17.5-.6c-.4 1.2-.5 2.4-.2 2.7.3.2.8-.5 1.2-1.7.4-1.2.5-2.4.2-2.7-.3-.2-.8.5-1.2 1.7zm64.4 9.7c-1.3 1.6-1.2 1.7.4.4 1.6-1.3 2.1-2.1 1.3-2.1-.2 0-1 .8-1.7 1.7zm-185.3 1.1c-.3.5.1 1.7.8 2.7 1 1.4 1.5 1.5 2.1.5.6-.9.4-1.1-.5-.5-1 .6-1.2.4-.7-.8.7-1.7-.8-3.3-1.7-1.9zM171 224c0 .5.5 1 1.1 1 .5 0 .7-.5.4-1-.3-.6-.8-1-1.1-1-.2 0-.4.4-.4 1zm7.5 4c-.3.5-.1 1 .4 1 .6 0 1.1-.5 1.1-1 0-.6-.2-1-.4-1-.3 0-.8.4-1.1 1zm-3.8 4.7c-1 .9-.9 2.3.1 2.3.5 0 .9-.7.9-1.5 0-1.7-.1-1.8-1-.8zm-45.1 1c-1.1 1.1-.6 2.3.9 2.3.8 0 1.5-.4 1.5-.9 0-1.3-1.6-2.2-2.4-1.4zm40.4.3c0 .5.5 1 1 1 .6 0 1-.5 1-1 0-.6-.4-1-1-1-.5 0-1 .4-1 1zm-36.4.9c-.4.5-.2 1.2.3 1.5.5.4 1.2.2 1.5-.3.4-.5.2-1.2-.3-1.5-.5-.4-1.2-.2-1.5.3zM173 237c0 .5.5 1 1 1 .6 0 1-.5 1-1 0-.6-.4-1-1-1-.5 0-1 .4-1 1zm-8.5 4.1c-.4 1.1-.4 2.3-.1 2.6.3.4.6-.1.6-1 0-1 .5-1.7 1-1.7.6 0 1-.5 1-1 0-1.8-1.9-1-2.5 1.1zm-10-.1c-.4.6-1.1.7-1.7.4-.6-.4-.8-.2-.5.4.4.5 1.6.8 2.7.5 1.1-.3 1.7-.9 1.4-1.4-.7-1.2-1.1-1.1-1.9.1zm31-15c.3.5.8 1 1.1 1 .2 0 .4-.5.4-1 0-.6-.5-1-1.1-1-.5 0-.7.4-.4 1zm57 27.3c-1 2.3-.2 7.2 1.9 11.7l1.6 3.5-.6-4c-1.9-12.5-2-13-2.9-11.2zm14.2 14.2c.5 2.3 2.9 5.2 3.7 4.4.7-.7-2.2-6.9-3.2-6.9-.5 0-.7 1.1-.5 2.5zm-39.7 7c0 .2 1.4 1.1 3 2 3.3 1.7 4 1 1.3-1.1-1.8-1.3-4.3-1.9-4.3-.9zm47 2.5c.6 1.1 1.5 2 2 2 1.4 0 .1-2.8-1.6-3.4-1.2-.4-1.2-.2-.4 1.4zm-7-.2c0 .5.7 1.6 1.6 2.3 1.4 1.2 1.6 1.1 1.3-.5-.4-2-2.9-3.5-2.9-1.8zm11 3.6c0 .2.8 1 1.8 1.7 1.5 1.3 1.6 1.2.3-.4s-2.1-2.1-2.1-1.3zm-48.1 5.4c2 3.8 8.4 7.2 9.6 5.1.3-.4-.5-1.1-1.9-1.5-1.3-.3-3.4-1.7-4.7-3-2.6-2.8-4.4-3.2-3-.6zm7.5 1.1c.3.5 1.5 1.1 2.6 1.4 1.7.4 1.9.3.9-.9-1.2-1.5-4.4-2-3.5-.5zm42.5 6.7c1.2 1.5 2.1 3.3 2.1 4.1 0 .8.5 1.1 1 .8 1.6-1 1.2-4-.8-5.8-3-2.7-4.6-2-2.3.9zm-6.7-.4c.2.6 1 1.4 1.6 1.6.7.2 1-.2.6-1.2-.7-1.8-2.8-2.2-2.2-.4zM212 300c.8.5 2.6 1 4 1 2 0 2.2-.2 1-1-.8-.5-2.6-1-4-1-2 0-2.2.2-1 1zm55 4c0 .5.9 1 2 1s2-.5 2-1c0-.6-.9-1-2-1s-2 .4-2 1zm-26 1c.8.5 2.2 1 3 1 1.3 0 1.3-.1 0-1-.8-.5-2.2-1-3-1-1.3 0-1.3.1 0 1zm-15.2 3.7c.7.3 1.6.2 1.9-.1.4-.3-.2-.6-1.3-.5-1.1 0-1.4.3-.6.6zM159 249c0 .5.5 1 1.1 1 .5 0 .7-.5.4-1-.3-.6-.8-1-1.1-1-.2 0-.4.4-.4 1zm14.3 9.8c-.7.4-1.4 3.9-1.7 7.7-.5 6.8-.5 6.8.5 2 .5-2.8 1.1-5.9 1.2-7 .3-2.8 4.2-3.2 5.6-.6.6 1.1 1.5 3.7 2 5.8l.9 3.8.1-4.3c.1-6.1-4.4-10.1-8.6-7.4zm-14.5 2.7c-.9 1.9-.9 7.1 0 21.3 1.4 21.8 1.5 22.9 2.7 23.9.4.5.5.1.1-.7-.7-1.3-.6-1.3.6 0 1.5 1.7 6.9 1.5 8-.3.4-.7.7-2.8.7-4.7 0-1.9-.3-2.9-.6-2.3-.7 2-2.9 1.5-4.5-1-3.5-5.3-4.8-11.8-4.4-22.1.3-8.6.2-9.1-.4-3.1l-.7 7v-9c0-5 .4-9.6.9-10.3.7-.8.7-1.2-.1-1.2-.6 0-1.7 1.1-2.3 2.5zm8.3-.8c.7 1.2 1.5 2 1.8 1.7.3-.2-.3-1.2-1.3-2.2-1.7-1.6-1.8-1.6-.5.5zm-15.3.8c.5 1.1 1.2 2.7 1.5 3.5.5 1.3.6 1.3.6-.1.1-.8-.6-2.4-1.5-3.5-1.5-1.9-1.5-1.9-.6.1zm-5.6 6c0 1.6.2 2.2.5 1.2.2-.9.2-2.3 0-3-.3-.6-.5.1-.5 1.8z"/><path d="M172.6 275.6c-1.1 11.9 1.2 31.3 3.5 29.8.5-.3.9 0 .9.5 0 .6.7 1.1 1.5 1.1s1.5-.5 1.5-1c0-.6.6-1 1.4-1 1.8 0 2.6-2.2 2.6-6.8 0-3.4-.1-3.5-1.6-1.6-.8 1-1.3 1.3-.9.7.4-.9.1-1.1-.9-.7-.9.3-1.3 1-1 1.5.3.5-.6.4-2-.2-2.9-1.4-4.2-5.7-3.2-11.1.5-2.6.4-2.9-.4-1.3-.6 1.4-.7-1.2-.3-7.8.7-11.5-.1-13.1-1.1-2.1zm-38.3-2.1c0 2.2.2 3 .4 1.7.2-1.2.2-3 0-4-.3-.9-.5.1-.4 2.3zm46.9 1c0 1.6.2 2.2.5 1.2.2-.9.2-2.3 0-3-.3-.6-.5.1-.5 1.8zM106 245.4c0 .2.7.9 1.5 1.6 1.3 1.1 1.4 1 .9-.4-.5-1.4-2.4-2.3-2.4-1.2zm13.3 11.2c1 1-2 3.4-4.2 3.4-1.2 0-2.1.3-2.1.7 0 .5 2.4.8 5.4.8 5.1 0 7.1-1.4 2.3-1.6-2-.1-2-.2.3-.9 1.4-.4 1.9-.8 1.2-.9-.7-.1-1-.6-.7-1.1.3-.6-.2-1-1.1-1-1 0-1.5.3-1.1.6zm-16.5 16.1c.7.3 1.6.2 1.9-.1.4-.3-.2-.6-1.3-.5-1.1 0-1.4.3-.6.6zm6.5 13c.9.2 2.3.2 3 0 .6-.3-.1-.5-1.8-.5-1.6 0-2.2.2-1.2.5zm191.7 4.2c0 .5.5 1.3 1 1.6.6.3 1 .2 1-.4 0-.5-.4-1.3-1-1.6-.5-.3-1-.2-1 .4zM109.5 296c-.8 1.3 1.5 1.3 3.5 0 1.2-.8 1.1-1-.7-1-1.2 0-2.5.4-2.8 1zm13.5 6.9c1.3.9 1.2 1.1-.3 1.1-1.1 0-1.7.6-1.4 1.2.2.7 1 1.3 1.8 1.3 1.9 0 1.8-3.7-.1-4.2-1.3-.4-1.3-.3 0 .6zm181.6 24.2c-3 2.4-3.4 4.3-.7 3.4 2.7-.8 8.9 9.8 7.1 12-1.8 2.2-.2 1.8 4.7-1 4.6-2.8 5.6-4.1 2.3-3.2-1.6.4-2.6-.5-4.7-4.1-1.5-2.6-3.4-5.7-4.4-6.9l-1.7-2.3-2.6 2.1zm-211.2.6c.5 1.8-5.2 13-6.7 13.1-2.4.1-1.4 1.3 3.3 3.7 2.8 1.4 6.3 2.5 7.7 2.3 3.4-.4 5.2-3.2 3.7-5.5-.9-1.4-.7-2 1-2.8 2.8-1.4 3.3-5.3.9-7.1-2.1-1.6-8.9-5.4-9.8-5.4-.4 0-.4.8-.1 1.7zm7.6 6.2c0 .5-.7 1.4-1.5 2.1-2.1 1.7-3.9-.1-3-2.9.5-1.7 1-1.9 2.6-1.1 1 .6 1.9 1.4 1.9 1.9zm-4.1 5.5c1.2 1.4.5 4.6-.9 4.6-3.5 0-5-2.6-2.8-4.8 1.5-1.5 2.3-1.5 3.7.2zm196.3-7.2c-3.1 3.1.6 9.6 4.7 8.3 2.8-.9 3.6-4.1 1.7-7-1.8-2.7-4.5-3.2-6.4-1.3zm4.8 5.6c0 1.2-.3 1.2-1.5.2-.8-.7-1.5-2.2-1.5-3.4.1-2.1.1-2.1 1.5-.2.8 1.1 1.5 2.6 1.5 3.4zm-189.7-2.4c.7 1.7-4.8 13.6-6.3 13.6-2.6 0-.5 1.7 4.8 3.8 6.7 2.6 8.2 2.7 8.2.8 0-.8-1.5-1.7-3.6-2.1-3.3-.6-3.5-.8-2.9-3.3.9-3.6 1.1-3.7 4.1-2.3 1.6.7 3.1.8 3.6.3s-.3-1.4-2.1-2.2c-3.5-1.4-3.5-1.4-2-4.1 1-2 1-2 4.4 0 1.8 1 3.6 1.7 3.9 1.4 1.6-1.7 0-3.2-5.3-5.2-6.9-2.5-7.5-2.5-6.8-.7zm177.9-.3c-1.3.5-2 1.3-1.7 1.9.4.6 1 .8 1.4.6.4-.3 1.5 1.5 2.4 4 .9 2.4 1.3 4.4 1 4.4-.3 0-3.2-1.6-6.4-3.6-4-2.4-6.5-3.3-7.9-2.9-2.2.7-2.7 2.5-.7 2.5 1.5 0 6.8 12.6 6 14.5-.6 1.8-.2 1.8 3.1.4 1.4-.7 2.3-1.6 2-2.1-.3-.4-.9-.6-1.3-.3-.5.2-1.8-1.8-3-4.6l-2.1-5.1 2.3 1.4c14 9.1 15.7 8.9 11.2-1.4-1.9-4.3-3.2-8.4-2.9-9.3.7-1.7-.1-1.8-3.4-.4zm-163.7 6c1 1.6-3.6 13.8-5.4 14.2-2.3.5 5.7 3.8 9.8 4 2 .1 3.6-.3 3.8-1.1.3-.8-.5-1.2-2.4-1.2-4 0-5.3-1.2-4.6-3.9.5-2.1 1-2.2 4.4-1.7 4.7.7 5.2-.8.8-2.3-2.3-.8-3-1.5-2.5-2.7.3-.8.6-2 .6-2.5s1.6-.2 3.6.6c3.4 1.4 5.4 1.3 5.4-.4 0-.8-9.8-4.1-12.4-4.1-.9 0-1.4.5-1.1 1.1zm175.8.5c-3 1.3-4.9 5.2-2 4.1.6-.2 2.8-1 4.9-1.7 2.3-.9 3.4-1.8 3.1-2.7-.6-1.6-1.9-1.6-6 .3zm-36 2.1c-2.2.4-3.3 2.3-1.4 2.3.8 0 4.1 8.1 4.1 9.9 0 .3-2.2-1.9-4.8-4.8-4.4-4.9-5.1-5.3-8-4.6-2.9.6-4.6 2.5-2.2 2.5 1.4 0 5.3 13.4 4 13.8-2.2.8.1 1.8 3 1.4 1.7-.2 3-1 3-1.9 0-.8-.4-1.2-.8-.9-.5.3-1.6-1.7-2.4-4.4l-1.6-4.9 4.8 5c4.2 4.4 7.6 6 9.2 4.3.3-.3-.5-4-1.8-8.2-1.3-4.4-1.9-7.8-1.4-8 .6-.2 1-.8 1-1.3 0-.9-.8-1-4.7-.2zm-124.9 1.9c.9 2.4-2.4 13.4-4 13.4-2.8 0-1.3 1.9 2.3 2.9 3.7 1 5.7.6 3.6-.7-1.4-1 .3-5.5 1.9-5 .7.3 1.4 2.1 1.6 4 .2 2.7.9 3.7 2.4 4.1 3.4.9 3.8-.1 1.8-4.8-1.5-3.4-1.6-4.5-.6-4.5 1.7 0 4.6-3.3 4.6-5.2 0-1.8-4.8-4.3-10.4-5.3-3.4-.6-3.8-.4-3.2 1.1zm7.9 3.6c.7 2.1-.4 3.8-2.5 3.8-1.4 0-1.8-.5-1.4-1.6.3-.9.6-2 .6-2.5 0-1.4 2.8-1.1 3.3.3zm90.2 1c-2.5 1.9-2.7 2.6-2.3 7.6.5 6.1 3 9.2 7.5 9.2 3.8 0 8.1-3 8.8-6.1.9-3.8-1.2-10.7-3.5-11.9-3.1-1.6-7.5-1.2-10.5 1.2zm8.6 3.5c.5 1.5.9 4.3.7 6.2-.3 3.1-.7 3.6-2.8 3.6-2 0-2.7-.8-3.8-4-1.8-5.3-.9-8.5 2.3-8.5 1.8 0 2.8.8 3.6 2.7zm-83.5-2.8c-2.7 3-1.6 6.2 2.7 8.5 2 1.1 3.7 2.5 3.7 3.3 0 1.6-6.1 1.8-7.8.1-.9-.9-1.3-.7-1.8.6-.9 2.3 1.1 3.6 5.6 3.6 8.3 0 10.8-6.9 3.8-10.3-4.7-2.3-5.1-5.2-.8-4.9.3 0 1.8.4 3.3.7 2 .6 2.7.4 2.7-.8 0-3.2-8.7-3.8-11.4-.8zm13.4.3c0 1.3.8 1.8 3.1 1.8 2.4 0 2.9.4 2.6 1.7-.3 1-.8 3.9-1.2 6.5-.4 3.3-1.1 4.8-2.1 4.8-.8 0-1.2.4-.9 1 .3.5 2.4 1 4.6 1 2.1 0 3.9-.5 3.9-1 0-.6-.4-1-.8-1-.8 0-.7-2.7.4-9.8.5-3.3.7-3.4 4-2.8 2.5.5 3.4.3 3.4-.7 0-.9-2.5-1.6-8.5-2.3-7.8-.8-8.5-.8-8.5.8zm30 .2c0 1.1.9 1.6 3 1.6h3v7c0 4-.4 7-1 7-.5 0-1 .4-1 1 0 1.3 7.7 1.3 8.4.1.4-.5.2-1.1-.3-1.3-.4-.1-1.2-3.4-1.6-7.2l-.7-6.9 3.6.6c2.7.4 3.6.2 3.6-.9s-1.6-1.4-6.9-1.4c-3.8 0-7.6-.3-8.5-.6-1.1-.4-1.6-.1-1.6 1zm18-.5c0 .5.5 1.1 1.2 1.3.8.3 1.2 3.1 1.2 8.1l.1 7.7h3.2c3.1 0 5.3-1.5 3.3-2.2-1.7-.5-3.3-12.7-1.9-14.4.9-1.2.4-1.4-3-1.4-2.2 0-4.1.4-4.1.9zm-30.5 7.3c-1.5 4-3.2 7.7-3.6 8.2-1.6 1.8-.9 2.6 2.2 2.6 2.4 0 3-.4 2.5-1.5-1-2.7.5-4.5 3.6-4.5 2.9 0 3 .2 2.5 3-.6 2.9-.6 3 3.3 3 3.6 0 5.4-1.3 3.1-2.2-.5-.2-1.9-3.7-3.2-7.8-2.1-6.6-2.7-7.5-5-7.8-2.3-.3-2.8.3-5.4 7zm5.5-1.3c0 .5.3 1.6.6 2.5.4 1.2 0 1.6-1.6 1.6s-2-.4-1.6-1.6c.3-.9.6-2 .6-2.5s.5-.9 1-.9c.6 0 1 .4 1 .9zm122.5 1.1c-.3.5-.1 1 .4 1 .6 0 1.1-.5 1.1-1 0-.6-.2-1-.4-1-.3 0-.8.4-1.1 1z"/></svg>